<?xml version='1.0' encoding='UTF-8' standalone='no'?>
<svg xmlns="http://www.w3.org/2000/svg" viewBox="0 0 57.6 23.76" height="0.33in" gorn="0" y="0in" x="0in" version="1.2" width="0.8in"  id="svg2">
    <desc >
        <referenceFile >74HC4051_Breadboard.svg</referenceFile>
    </desc>
    <metadata  id="metadata87">
        <rdf:RDF xmlns:rdf="http://www.w3.org/1999/02/22-rdf-syntax-ns#">
            <cc:Work xmlns:cc="http://creativecommons.org/ns#" rdf:about="" xmlns:rdf="http://www.w3.org/1999/02/22-rdf-syntax-ns#">
                <dc:format xmlns:dc="http://purl.org/dc/elements/1.1/">image/svg+xml</dc:format>
                <dc:type xmlns:dc="http://purl.org/dc/elements/1.1/" rdf:resource="http://purl.org/dc/dcmitype/StillImage" xmlns:rdf="http://www.w3.org/1999/02/22-rdf-syntax-ns#"/>
                <dc:title xmlns:dc="http://purl.org/dc/elements/1.1/"/>
            </cc:Work>
        </rdf:RDF>
    </metadata>
    <defs  id="defs85"/>
    <g gorn="0.3"  partID="854432230" id="g4">
        <g gorn="0.3.0"  id="breadboard">
            <g height="2.16" y="21.6" x="2.52" width="2.16" style="fill:#8c8c8c;stroke-width:0" />
            <g height="2.16" y="0" x="2.52" width="2.16" style="fill:#8c8c8c;stroke-width:0" />
            <g height="2.16" y="21.6" x="52.92" width="2.16" style="fill:#8c8c8c;stroke-width:0" />
            <g height="2.16" y="0" x="52.92" width="2.16" style="fill:#8c8c8c;stroke-width:0" />
            <g height="2.16" y="21.6" x="9.72" width="2.16" style="fill:#8c8c8c;stroke-width:0" />
            <g height="2.16" y="0" x="9.72" width="2.16" style="fill:#8c8c8c;stroke-width:0" />
            <g height="2.16" y="21.6" x="16.92" width="2.16" style="fill:#8c8c8c;stroke-width:0" />
            <g height="2.16" y="0" x="16.92" width="2.16" style="fill:#8c8c8c;stroke-width:0" />
            <g height="2.16" y="21.6" x="24.12" width="2.16" style="fill:#8c8c8c;stroke-width:0" />
            <g height="2.16" y="0" x="24.12" width="2.16" style="fill:#8c8c8c;stroke-width:0" />
            <g height="2.16" y="21.6" x="31.32" width="2.16" style="fill:#8c8c8c;stroke-width:0" />
            <g height="2.16" y="0" x="31.32" width="2.16" style="fill:#8c8c8c;stroke-width:0" />
            <g height="2.16" y="21.6" x="38.52" width="2.16" style="fill:#8c8c8c;stroke-width:0" />
            <g height="2.16" y="0" x="38.52" width="2.16" style="fill:#8c8c8c;stroke-width:0" />
            <g height="2.16" y="21.6" x="45.72" width="2.16" style="fill:#8c8c8c;stroke-width:0" />
            <g height="2.16" y="0" x="45.72" width="2.16" style="fill:#8c8c8c;stroke-width:0" />
            <g gorn="0.3.0.16"  id="g3476">
                <rect height="19.440001" gorn="0.3.0.16.0" y="2.1600001" x="0" width="57.599998" style="fill:#303030;stroke-width:0"  id="middle"/>
                <rect height="1.7711999" gorn="0.3.0.16.1" y="2.1600001" x="0" width="57.599998" style="fill:#3d3d3d;stroke-width:0"  id="top"/>
                <rect height="1.7711999" gorn="0.3.0.16.2" y="19.8288" x="0" width="57.599998" style="fill:#000000;stroke-width:0"  id="bottom"/>
                <polygon gorn="0.3.0.16.3" style="fill:#1f1f1f;stroke-width:0"  id="left" points="0,2.16 0.54,3.9312 0.54,19.8288 0,21.6 "/>
                <polygon gorn="0.3.0.16.4" style="fill:#141414;stroke-width:0"  id="right" points="57.6,2.16 57.06,3.9312 57.06,19.8288 57.6,21.6 "/>
                <polygon gorn="0.3.0.16.5" style="fill:#1c1c1c;stroke-width:0"  id="left-upper-rect" points="3.6,11.88 3.6,8.28 0.54,8.2512 0.4032,9.7776 0.4032,11.88 "/>
                <polygon gorn="0.3.0.16.6" style="fill:#383838;stroke-width:0"  id="left-lower-rect" points="0.4032,13.9824 0.54,15.516 3.6,15.516 3.6,11.88 0.4032,11.88 "/>
                <path gorn="0.3.0.16.7" style="fill:#262626;stroke-width:0"  d="m 0.4032,9.7776 0,4.1976 C 1.4616,13.8528 2.2896,12.9672 2.2896,11.8728 2.2896,10.7784 1.4688,9.9 0.4032,9.7776 Z" id="slot"/>
                <path gorn="0.3.0.16.8" style="fill:#303030;stroke-width:0"  d="m 0.54,3.9312 0,4.3128 c 1.7136,0.324 3.0168,1.8216 3.0168,3.6288 0,1.8072 -1.296,3.312 -3.0168,3.636 l 0,0.0072 3.6,0 0,-11.5848 -3.6,0 z" id="cover"/>
                <circle gorn="0.3.0.16.9" r="1.4832" style="fill:#212121;stroke-width:0" cx="4.6799998"  id="circle16" cy="16.898399"/>
                <text gorn="0.3.0.16.10" font-size="5.76" y="16.365808" x="19.548693" style="font-size:5.76000023px;font-family:OCRA;text-anchor:start;fill:#e6e6e6;stroke:none;stroke-width:0"  id="label1">74HC4051</text>
                <polygon gorn="0.3.0.16.11" style="fill:#8c8c8c;stroke-width:0"  id="polygon21" points="6.12,20.6352 2.52,20.6352 2.52,22.0752 4.68,22.0752 6.12,21.4128 "/>
                <polygon gorn="0.3.0.16.12" style="fill:#8c8c8c;stroke-width:0"  id="123" points="2.52,3.1248 6.12,3.1248 6.12,2.3472 4.68,1.6848 2.52,1.6848 "/>
                <polygon gorn="0.3.0.16.13" style="fill:#8c8c8c;stroke-width:0"  id="polygon29" points="55.08,20.6352 51.48,20.6352 51.48,21.4128 52.92,22.0752 55.08,22.0752 "/>
                <polygon gorn="0.3.0.16.14" style="fill:#8c8c8c;stroke-width:0"  id="polygon33" points="51.48,3.1248 55.08,3.1248 55.08,1.6848 52.92,1.6848 51.48,2.3472 "/>
                <polygon gorn="0.3.0.16.15" style="fill:#8c8c8c;stroke-width:0"  id="polygon37" points="13.32,21.4128 13.32,20.6352 8.28,20.6352 8.28,21.4128 9.72,22.0752 11.88,22.0752 "/>
                <polygon gorn="0.3.0.16.16" style="fill:#8c8c8c;stroke-width:0"  id="polygon41" points="8.28,2.3472 8.28,3.1248 13.32,3.1248 13.32,2.3472 11.88,1.6848 9.72,1.6848 "/>
                <polygon gorn="0.3.0.16.17" style="fill:#8c8c8c;stroke-width:0"  id="polygon45" points="20.52,21.4128 20.52,20.6352 15.48,20.6352 15.48,21.4128 16.92,22.0752 19.08,22.0752 "/>
                <polygon gorn="0.3.0.16.18" style="fill:#8c8c8c;stroke-width:0"  id="polygon49" points="15.48,2.3472 15.48,3.1248 20.52,3.1248 20.52,2.3472 19.08,1.6848 16.92,1.6848 "/>
                <polygon gorn="0.3.0.16.19" style="fill:#8c8c8c;stroke-width:0"  id="polygon53" points="27.72,21.4128 27.72,20.6352 22.68,20.6352 22.68,21.4128 24.12,22.0752 26.28,22.0752 "/>
                <polygon gorn="0.3.0.16.20" style="fill:#8c8c8c;stroke-width:0"  id="polygon57" points="22.68,2.3472 22.68,3.1248 27.72,3.1248 27.72,2.3472 26.28,1.6848 24.12,1.6848 "/>
                <polygon gorn="0.3.0.16.21" style="fill:#8c8c8c;stroke-width:0"  id="345" points="34.92,21.4128 34.92,20.6352 29.88,20.6352 29.88,21.4128 31.32,22.0752 33.48,22.0752 "/>
                <polygon gorn="0.3.0.16.22" style="fill:#8c8c8c;stroke-width:0"  id="polygon65" points="29.88,2.3472 29.88,3.1248 34.92,3.1248 34.92,2.3472 33.48,1.6848 31.32,1.6848 "/>
                <polygon gorn="0.3.0.16.23" style="fill:#8c8c8c;stroke-width:0"  id="polygon69" points="42.12,21.4128 42.12,20.6352 37.08,20.6352 37.08,21.4128 38.52,22.0752 40.68,22.0752 "/>
                <polygon gorn="0.3.0.16.24" style="fill:#8c8c8c;stroke-width:0"  id="polygon73" points="37.08,2.3472 37.08,3.1248 42.12,3.1248 42.12,2.3472 40.68,1.6848 38.52,1.6848 "/>
                <polygon gorn="0.3.0.16.25" style="fill:#8c8c8c;stroke-width:0"  id="polygon77" points="49.32,21.4128 49.32,20.6352 44.28,20.6352 44.28,21.4128 45.72,22.0752 47.88,22.0752 "/>
                <polygon gorn="0.3.0.16.26" style="fill:#8c8c8c;stroke-width:0"  id="polygon81" points="44.28,2.3472 44.28,3.1248 49.32,3.1248 49.32,2.3472 47.88,1.6848 45.72,1.6848 "/>
                <rect height="3.1248" gorn="0.3.0.16.27" y="20.635201" x="2.52" style="fill:#8c8c8c;stroke-width:0" width="2.1600001"  id="connector0pin"/>
                <rect height="0.0062496" stroke="none" gorn="0.3.0.16.28" y="23.7569" x="3.59784" fill="none" width="0.00432"  stroke-width="0" id="connector0terminal"/>
                <rect height="3.1248" gorn="0.3.0.16.29" y="0" x="2.52" style="fill:#8c8c8c;stroke-width:0" width="2.1600001"  id="connector15pin"/>
                <rect height="0.0062496" stroke="none" gorn="0.3.0.16.30" y="-0.0031248" x="3.59784" fill="none" width="0.00432"  stroke-width="0" id="connector15terminal"/>
                <rect height="3.1248" gorn="0.3.0.16.31" y="20.635201" x="52.919998" style="fill:#8c8c8c;stroke-width:0" width="2.1600001"  id="connector7pin"/>
                <rect height="0.0062496" stroke="none" gorn="0.3.0.16.32" y="23.7569" x="53.9978" fill="none" width="0.00432"  stroke-width="0" id="connector7terminal"/>
                <rect height="3.1248" gorn="0.3.0.16.33" y="0" x="52.919998" style="fill:#8c8c8c;stroke-width:0" width="2.1600001"  id="connector8pin"/>
                <rect height="0.0062496" stroke="none" gorn="0.3.0.16.34" y="-0.0031248" x="53.9978" fill="none" width="0.00432"  stroke-width="0" id="connector8terminal"/>
                <rect height="3.1248" gorn="0.3.0.16.35" y="20.635201" x="9.7200003" style="fill:#8c8c8c;stroke-width:0" width="2.1600001"  id="connector1pin"/>
                <rect height="0.0062496" stroke="none" gorn="0.3.0.16.36" y="23.7569" x="10.7978" fill="none" width="0.00432"  stroke-width="0" id="connector1terminal"/>
                <rect height="3.1248" gorn="0.3.0.16.37" y="0" x="9.7200003" style="fill:#8c8c8c;stroke-width:0" width="2.1600001"  id="connector14pin"/>
                <rect height="0.0062496" stroke="none" gorn="0.3.0.16.38" y="-0.0031248" x="10.7978" fill="none" width="0.00432"  stroke-width="0" id="connector14terminal"/>
                <rect height="3.1248" gorn="0.3.0.16.39" y="20.635201" x="16.92" style="fill:#8c8c8c;stroke-width:0" width="2.1600001"  id="connector2pin"/>
                <rect height="0.0062496" stroke="none" gorn="0.3.0.16.40" y="23.7569" x="17.9978" fill="none" width="0.00432"  stroke-width="0" id="connector2terminal"/>
                <rect height="3.1248" gorn="0.3.0.16.41" y="0" x="16.92" style="fill:#8c8c8c;stroke-width:0" width="2.1600001"  id="connector13pin"/>
                <rect height="0.0062496" stroke="none" gorn="0.3.0.16.42" y="-0.0031248" x="17.9978" fill="none" width="0.00432"  stroke-width="0" id="connector13terminal"/>
                <rect height="3.1248" gorn="0.3.0.16.43" y="20.635201" x="24.120001" style="fill:#8c8c8c;stroke-width:0" width="2.1600001"  id="connector3pin"/>
                <rect height="0.0062496" stroke="none" gorn="0.3.0.16.44" y="23.7569" x="25.1978" fill="none" width="0.00432"  stroke-width="0" id="connector3terminal"/>
                <rect height="3.1248" gorn="0.3.0.16.45" y="0" x="24.120001" style="fill:#8c8c8c;stroke-width:0" width="2.1600001"  id="connector12pin"/>
                <rect height="0.0062496" stroke="none" gorn="0.3.0.16.46" y="-0.0031248" x="25.1978" fill="none" width="0.00432"  stroke-width="0" id="connector12terminal"/>
                <rect height="3.1248" gorn="0.3.0.16.47" y="20.635201" x="31.32" style="fill:#8c8c8c;stroke-width:0" width="2.1600001"  id="connector4pin"/>
                <rect height="0.0062496" stroke="none" gorn="0.3.0.16.48" y="23.7569" x="32.3978" fill="none" width="0.00432"  stroke-width="0" id="connector4terminal"/>
                <rect height="3.1248" gorn="0.3.0.16.49" y="0" x="31.32" style="fill:#8c8c8c;stroke-width:0" width="2.1600001"  id="connector11pin"/>
                <rect height="0.0062496" stroke="none" gorn="0.3.0.16.50" y="-0.0031248" x="32.3978" fill="none" width="0.00432"  stroke-width="0" id="connector11terminal"/>
                <rect height="3.1248" gorn="0.3.0.16.51" y="20.635201" x="38.52" style="fill:#8c8c8c;stroke-width:0" width="2.1600001"  id="connector5pin"/>
                <rect height="0.0062496" stroke="none" gorn="0.3.0.16.52" y="23.7569" x="39.5978" fill="none" width="0.00432"  stroke-width="0" id="connector5terminal"/>
                <rect height="3.1248" gorn="0.3.0.16.53" y="0" x="38.52" style="fill:#8c8c8c;stroke-width:0" width="2.1600001"  id="connector10pin"/>
                <rect height="0.0062496" stroke="none" gorn="0.3.0.16.54" y="-0.0031248" x="39.5978" fill="none" width="0.00432"  stroke-width="0" id="connector10terminal"/>
                <rect height="3.1248" gorn="0.3.0.16.55" y="20.635201" x="45.720001" style="fill:#8c8c8c;stroke-width:0" width="2.1600001"  id="connector6pin"/>
                <rect height="0.0062496" stroke="none" gorn="0.3.0.16.56" y="23.7569" x="46.7978" fill="none" width="0.00432"  stroke-width="0" id="connector6terminal"/>
                <rect height="3.1248" gorn="0.3.0.16.57" y="0" x="45.720001" style="fill:#8c8c8c;stroke-width:0" width="2.1600001"  id="connector9pin"/>
                <rect height="0.0062496" stroke="none" gorn="0.3.0.16.58" y="-0.0031248" x="46.7978" fill="none" width="0.00432"  stroke-width="0" id="connector9terminal"/>
            </g>
        </g>
    </g>
</svg>
